<svg xmlns="http://www.w3.org/2000/svg" viewBox="0 0 512 512" role="img" aria-labelledby="title desc">
  <title id="title">Crown Dealer Sly</title>
  <desc id="desc">A stylized royal arcade fox dealer with a neon visor, gold crown, purple tuxedo and a smug grin.</desc>
  <defs>
    <linearGradient id="fur" x1="0" y1="0" x2="1" y2="1"><stop stop-color="#44205f"/><stop offset=".52" stop-color="#211333"/><stop offset="1" stop-color="#090b18"/></linearGradient>
    <linearGradient id="ear" x1="0" y1="0" x2="1" y2="1"><stop stop-color="#ff62d8"/><stop offset="1" stop-color="#7d2ea6"/></linearGradient>
    <linearGradient id="gold" x1="0" y1="0" x2="1" y2="1"><stop stop-color="#fff0a6"/><stop offset=".4" stop-color="#ffd36a"/><stop offset="1" stop-color="#9a581d"/></linearGradient>
    <linearGradient id="tux" x1="0" y1="0" x2="1" y2="1"><stop stop-color="#76329b"/><stop offset=".48" stop-color="#2b174b"/><stop offset="1" stop-color="#0c1322"/></linearGradient>
    <filter id="glow" x="-60%" y="-60%" width="220%" height="220%"><feGaussianBlur stdDeviation="9" result="b"/><feFlood flood-color="#5ff7d4" flood-opacity=".8"/><feComposite in2="b" operator="in"/><feMerge><feMergeNode/><feMergeNode in="SourceGraphic"/></feMerge></filter>
    <filter id="goldGlow" x="-60%" y="-60%" width="220%" height="220%"><feGaussianBlur stdDeviation="7" result="b"/><feFlood flood-color="#ffd36a" flood-opacity=".75"/><feComposite in2="b" operator="in"/><feMerge><feMergeNode/><feMergeNode in="SourceGraphic"/></feMerge></filter>
  </defs>
  <circle cx="256" cy="254" r="224" fill="#150a2e" fill-opacity=".72" stroke="#a86cff" stroke-width="10"/><circle cx="256" cy="254" r="204" fill="none" stroke="#5ff7d4" stroke-opacity=".28" stroke-width="5" stroke-dasharray="12 16"/>
  <path d="M105 212L74 55L210 137Z" fill="url(#fur)" stroke="#ffd36a" stroke-width="11" stroke-linejoin="round"/><path d="M407 212L438 55L302 137Z" fill="url(#fur)" stroke="#ffd36a" stroke-width="11" stroke-linejoin="round"/><path d="M113 151L98 88L174 133Z" fill="url(#ear)"/><path d="M399 151L414 88L338 133Z" fill="url(#ear)"/>
  <path d="M165 125L143 45L215 83L256 27L297 83L369 45L347 125Z" fill="url(#gold)" stroke="#fff0a6" stroke-width="8" stroke-linejoin="round" filter="url(#goldGlow)"/><circle cx="160" cy="52" r="13" fill="#ff62d8"/><circle cx="256" cy="34" r="14" fill="#5ff7d4"/><circle cx="352" cy="52" r="13" fill="#a86cff"/><rect x="165" y="111" width="182" height="35" rx="14" fill="#6c2f83" stroke="#ffd36a" stroke-width="7"/>
  <path d="M112 236Q126 131 256 120Q386 131 400 236L374 353Q353 427 256 447Q159 427 138 353Z" fill="url(#fur)" stroke="#0b0715" stroke-width="15"/><path d="M130 242Q145 160 256 148Q367 160 382 242L355 336Q329 391 256 406Q183 391 157 336Z" fill="#3c2157" opacity=".65"/>
  <path d="M133 224Q170 184 239 204L256 217L273 204Q342 184 379 224L360 286Q315 311 271 273H241Q197 311 152 286Z" fill="#07161e" stroke="#5ff7d4" stroke-width="9" filter="url(#glow)"/><path d="M157 229Q190 205 232 218L237 256Q200 276 170 257Z" fill="#5ff7d4" fill-opacity=".35"/><path d="M355 229Q322 205 280 218L275 256Q312 276 342 257Z" fill="#ff62d8" fill-opacity=".31"/><path d="M182 236L217 226M330 236L295 226" stroke="#fff" stroke-opacity=".7" stroke-width="6" stroke-linecap="round"/>
  <path d="M175 301Q256 267 337 301L322 360Q285 401 256 403Q227 401 190 360Z" fill="#f2d7c3" stroke="#211333" stroke-width="9"/><path d="M230 304Q256 287 282 304L269 329Q256 340 243 329Z" fill="#14101d"/><path d="M205 345Q256 378 307 345Q287 391 256 393Q225 391 205 345Z" fill="#241326" stroke="#090711" stroke-width="6"/><path d="M218 348Q256 366 294 348" fill="none" stroke="#fff0df" stroke-width="10" stroke-linecap="round"/><path d="M256 338V348" stroke="#211333" stroke-width="7" stroke-linecap="round"/>
  <path d="M150 318L112 333M159 338L119 360M362 318L400 333M353 338L393 360" stroke="#ff62d8" stroke-width="6" stroke-linecap="round" opacity=".7"/>
  <path d="M96 512Q112 408 183 379L256 432L329 379Q400 408 416 512Z" fill="url(#tux)" stroke="#0b0715" stroke-width="13"/><path d="M183 379L239 425L194 472L145 410Z" fill="#f7ead9"/><path d="M329 379L273 425L318 472L367 410Z" fill="#f7ead9"/><path d="M220 426L256 454L292 426L310 471L256 500L202 471Z" fill="url(#gold)" stroke="#fff0a6" stroke-width="6" filter="url(#goldGlow)"/><circle cx="256" cy="475" r="10" fill="#5ff7d4"/>
</svg>
